<svg width="21" height="20" viewBox="0 0 21 20" fill="none" xmlns="http://www.w3.org/2000/svg">
<g clip-path="url(#clip0_905_24789)">
<path d="M17.8779 4.28875L13.7113 0.12207C13.6331 0.0439453 13.5273 0 13.4166 0H4.66664C3.74789 0 3 0.747461 3 1.66668V18.3334C3 19.2525 3.74789 20 4.66668 20H16.3334C17.2521 20 18 19.2525 18 18.3333V4.58332C18 4.47266 17.9561 4.36688 17.8779 4.28875ZM13.8333 1.42254L16.5775 4.16668H14.6666C14.2068 4.16668 13.8333 3.79273 13.8333 3.33336V1.42254ZM17.1667 18.3333C17.1667 18.7927 16.7931 19.1666 16.3334 19.1666H4.66668C4.20687 19.1666 3.83336 18.7927 3.83336 18.3333V1.66668C3.83336 1.2073 4.20691 0.833359 4.66668 0.833359H13V3.33336C13 4.25254 13.7479 5 14.6667 5H17.1667V18.3333Z" fill="white" stroke="white" stroke-width="0.2"/>
<path d="M15.0833 11.6666H5.91668C5.68637 11.6666 5.5 11.853 5.5 12.0833C5.5 12.3136 5.68637 12.5 5.91668 12.5H15.0834C15.3137 12.5 15.5 12.3136 15.5 12.0833C15.5 11.853 15.3136 11.6666 15.0833 11.6666Z" fill="white" stroke="white" stroke-width="0.2"/>
<path d="M15.0833 9.16663H5.91668C5.68637 9.16663 5.5 9.35299 5.5 9.58331C5.5 9.81362 5.68637 9.99999 5.91668 9.99999H15.0834C15.3137 9.99999 15.5 9.81362 15.5 9.58331C15.5 9.35299 15.3136 9.16663 15.0833 9.16663Z" fill="white" stroke="white" stroke-width="0.2"/>
<path d="M15.0833 14.1666H5.91668C5.68637 14.1666 5.5 14.353 5.5 14.5833C5.5 14.8136 5.68637 15 5.91668 15H15.0834C15.3137 15 15.5 14.8136 15.5 14.5833C15.5 14.353 15.3136 14.1666 15.0833 14.1666Z" fill="white" stroke="white" stroke-width="0.2"/>
<path d="M10.9167 16.6666H5.91668C5.68637 16.6666 5.5 16.853 5.5 17.0833C5.5 17.3136 5.68637 17.5 5.91668 17.5H10.9167C11.147 17.5 11.3334 17.3136 11.3334 17.0833C11.3333 16.853 11.147 16.6666 10.9167 16.6666Z" fill="white" stroke="white" stroke-width="0.2"/>
<path d="M9.66797 7.08331C9.66797 7.31362 9.85434 7.49999 10.0846 7.49999H15.0846C15.315 7.49999 15.5013 7.31362 15.5013 7.08331C15.5013 6.85299 15.315 6.66663 15.0846 6.66663H10.0846C9.85434 6.66667 9.66797 6.85303 9.66797 7.08331Z" fill="white" stroke="white" stroke-width="0.2"/>
<path d="M6.75 6.6667H5.91668C5.68637 6.6667 5.5 6.85307 5.5 7.08338C5.5 7.3137 5.68637 7.50006 5.91668 7.50006H6.33336C6.33336 7.73038 6.51973 7.91674 6.75004 7.91674C6.98035 7.91674 7.16672 7.73038 7.16672 7.50006V7.42331C7.65062 7.25069 8 6.79252 8 6.25002C8 5.56073 7.4393 5.00002 6.75 5.00002C6.52051 5.00002 6.33332 4.81327 6.33332 4.58334C6.33332 4.35346 6.52051 4.16667 6.75 4.16667H7.58332C7.81363 4.16667 8 3.9803 8 3.74999C8 3.51967 7.81363 3.33331 7.58332 3.33331H7.16664C7.16664 3.10299 6.98027 2.91663 6.74996 2.91663C6.51965 2.91663 6.33328 3.10299 6.33328 3.33331V3.41006C5.84938 3.58268 5.5 4.04084 5.5 4.58334C5.5 5.27264 6.0607 5.83334 6.75 5.83334C6.97949 5.83334 7.16668 6.0201 7.16668 6.25002C7.16668 6.47995 6.97949 6.6667 6.75 6.6667Z" fill="white" stroke="white" stroke-width="0.2"/>
</g>
<defs>
<clipPath id="clip0_905_24789">
<rect width="20" height="20" fill="white" transform="translate(0.5)"/>
</clipPath>
</defs>
</svg>
