<svg width="23" height="22" viewBox="0 0 23 22" fill="none" xmlns="http://www.w3.org/2000/svg">
<g clip-path="url(#clip0_908_25485)">
<path d="M20.513 0.949755C20.4373 0.903039 20.3501 0.878174 20.2611 0.878174H5.90081C4.66622 0.878174 3.66182 1.87278 3.66182 3.09173L3.57743 15.4582H0.982232C0.715874 15.4582 0.5 15.674 0.5 15.9404V18.1683C0.501695 19.8043 1.82746 21.13 3.46347 21.1319C3.49662 21.1319 3.52996 21.1285 3.56255 21.1217H15.5439C15.6153 21.1268 15.6873 21.1302 15.7598 21.1302C17.4213 21.1272 18.7666 19.78 18.7672 18.1185V10.8896H22.0177C22.2841 10.8896 22.4999 10.6737 22.4999 10.4073V3.24883C22.4941 2.09769 21.6511 1.12212 20.513 0.949755ZM1.46446 18.1684V16.4228H12.7525V18.1187C12.7519 18.8743 13.0361 19.6021 13.5487 20.1573H3.39754C3.37474 20.1575 3.35214 20.1592 3.32972 20.1626C2.28068 20.0912 1.46578 19.2199 1.46446 18.1684ZM17.8027 3.24883V18.1185C17.8018 18.6576 17.5876 19.1742 17.2069 19.5556C16.8424 19.9295 16.3472 20.1479 15.8254 20.1644C15.7994 20.1599 15.773 20.1577 15.7464 20.1575H15.5769C14.5265 20.0541 13.7239 19.1744 13.7169 18.1189V15.9404C13.7169 15.6742 13.501 15.4582 13.2347 15.4582H4.54189L4.62629 3.09512C4.63326 2.39777 5.20327 1.83736 5.90081 1.84264H18.2817C17.9711 2.24556 17.8025 2.74004 17.8027 3.24883ZM21.5355 9.92511H18.7672V3.24883C18.7798 2.49327 19.3958 1.88766 20.1513 1.88766C20.9069 1.88766 21.5229 2.49327 21.5355 3.24883V9.92511Z" fill="white" stroke="white" stroke-width="0.2"/>
<path d="M6.69317 6.1024H11.2604C11.5268 6.1024 11.7427 5.88653 11.7427 5.62017C11.7427 5.35381 11.5268 5.13794 11.2604 5.13794H6.69317C6.42681 5.13794 6.21094 5.35381 6.21094 5.62017C6.21094 5.88653 6.42681 6.1024 6.69317 6.1024Z" fill="white"/>
<path d="M15.2129 8.58594H6.69317C6.42681 8.58594 6.21094 8.80181 6.21094 9.06817C6.21094 9.33434 6.42681 9.5504 6.69317 9.5504H15.2129C15.4792 9.5504 15.6951 9.33434 15.6951 9.06817C15.6951 8.80181 15.4792 8.58594 15.2129 8.58594Z" fill="white"/>
<path d="M15.2129 12.0337H6.69317C6.42681 12.0337 6.21094 12.2498 6.21094 12.5159C6.21094 12.7823 6.42681 12.9982 6.69317 12.9982H15.2129C15.4792 12.9982 15.6951 12.7823 15.6951 12.5159C15.6951 12.2498 15.4792 12.0337 15.2129 12.0337Z" fill="white"/>
</g>
<defs>
<clipPath id="clip0_908_25485">
<rect width="22" height="22" fill="white" transform="translate(0.5)"/>
</clipPath>
</defs>
</svg>
