<svg width="25" height="25" viewBox="0 0 25 25" fill="none" xmlns="http://www.w3.org/2000/svg">
<g clip-path="url(#clip0_1301_1032)">
<path d="M20.7031 3.56763H17.2852V2.88403C17.2852 1.75323 16.3652 0.833252 15.2344 0.833252H9.76562C8.63482 0.833252 7.71484 1.75323 7.71484 2.88403V3.56763H4.29688C3.16607 3.56763 2.24609 4.48761 2.24609 5.61841C2.24609 6.52659 2.83968 7.29827 3.65908 7.56715L4.87839 22.2861C4.9662 23.3406 5.8639 24.1666 6.92206 24.1666H18.0779C19.1361 24.1666 20.0338 23.3406 20.1217 22.2857L21.3409 7.56711C22.1603 7.29827 22.7539 6.52659 22.7539 5.61841C22.7539 4.48761 21.8339 3.56763 20.7031 3.56763ZM9.08203 2.88403C9.08203 2.5071 9.38869 2.20044 9.76562 2.20044H15.2344C15.6113 2.20044 15.918 2.5071 15.918 2.88403V3.56763H9.08203V2.88403ZM18.7592 22.1726C18.7299 22.524 18.4307 22.7994 18.0779 22.7994H6.92206C6.56937 22.7994 6.27014 22.524 6.24092 22.1729L5.03944 7.66919H19.9606L18.7592 22.1726ZM20.7031 6.302H4.29688C3.91994 6.302 3.61328 5.99534 3.61328 5.61841C3.61328 5.24147 3.91994 4.93481 4.29688 4.93481H20.7031C21.0801 4.93481 21.3867 5.24147 21.3867 5.61841C21.3867 5.99534 21.0801 6.302 20.7031 6.302Z" fill="black"/>
<path d="M9.76436 20.7063L9.08076 9.6777C9.05738 9.30086 8.73122 9.01425 8.3562 9.03772C7.97936 9.0611 7.69284 9.38549 7.71617 9.76229L8.39977 20.791C8.42223 21.1534 8.7232 21.4323 9.0814 21.4323C9.47729 21.4323 9.78865 21.0989 9.76436 20.7063Z" fill="black"/>
<path d="M12.5 9.03638C12.1225 9.03638 11.8164 9.34244 11.8164 9.71997V20.7486C11.8164 21.1261 12.1225 21.4322 12.5 21.4322C12.8775 21.4322 13.1836 21.1261 13.1836 20.7486V9.71997C13.1836 9.34244 12.8775 9.03638 12.5 9.03638Z" fill="black"/>
<path d="M16.6439 9.03771C16.2679 9.01433 15.9426 9.30085 15.9193 9.67769L15.2357 20.7063C15.2124 21.0831 15.4989 21.4075 15.8757 21.4309C16.2527 21.4542 16.577 21.1676 16.6003 20.7909L17.2839 9.76227C17.3072 9.38543 17.0207 9.06105 16.6439 9.03771Z" fill="black"/>
</g>
<defs>
<clipPath id="clip0_1301_1032">
<rect width="23.3333" height="23.3333" fill="white" transform="translate(0.832031 0.833252)"/>
</clipPath>
</defs>
</svg>
