<svg width="31" height="31" viewBox="0 0 31 31" fill="none" xmlns="http://www.w3.org/2000/svg">
<g clip-path="url(#clip0_910_26392)">
<path d="M7.75 2.42188C6.6962 2.42187 5.66606 2.73436 4.78985 3.31983C3.91365 3.90529 3.23073 4.73743 2.82746 5.71101C2.42418 6.6846 2.31867 7.75591 2.52426 8.78947C2.72984 9.82302 3.2373 10.7724 3.98245 11.5176C4.7276 12.2627 5.67698 12.7702 6.71054 12.9757C7.74409 13.1813 8.8154 13.0758 9.78899 12.6725C10.7626 12.2693 11.5947 11.5864 12.1802 10.7101C12.7656 9.83394 13.0781 8.8038 13.0781 7.75C13.0765 6.33739 12.5147 4.98309 11.5158 3.98422C10.5169 2.98535 9.16262 2.42348 7.75 2.42188ZM7.75 12.1094C6.8878 12.1094 6.04496 11.8537 5.32806 11.3747C4.61117 10.8957 4.05242 10.2148 3.72247 9.41826C3.39251 8.62169 3.30618 7.74516 3.47439 6.89953C3.6426 6.05389 4.05779 5.27713 4.66746 4.66746C5.27713 4.05779 6.05389 3.6426 6.89953 3.47439C7.74517 3.30618 8.62169 3.39251 9.41826 3.72246C10.2148 4.05241 10.8957 4.61117 11.3747 5.32806C11.8537 6.04496 12.1094 6.8878 12.1094 7.75C12.1081 8.90578 11.6484 10.0139 10.8311 10.8311C10.0139 11.6484 8.90578 12.1081 7.75 12.1094Z" fill="#39B54A" stroke="#39B54A" stroke-width="0.3"/>
<path d="M8.71875 6.78125C8.84721 6.78125 8.97042 6.73022 9.06126 6.63938C9.15209 6.54854 9.20312 6.42534 9.20312 6.29688C9.20312 6.16841 9.15209 6.04521 9.06126 5.95437C8.97042 5.86353 8.84721 5.8125 8.71875 5.8125H8.23438C8.23438 5.68404 8.18334 5.56083 8.09251 5.47C8.00167 5.37916 7.87846 5.32812 7.75 5.32812C7.62154 5.32812 7.49833 5.37916 7.4075 5.47C7.31666 5.56083 7.26562 5.68404 7.26562 5.8125H6.78125C6.65279 5.8125 6.52958 5.86353 6.43875 5.95437C6.34791 6.04521 6.29688 6.16841 6.29688 6.29688V7.75C6.29688 7.87846 6.34791 8.00167 6.43875 8.09251C6.52958 8.18334 6.65279 8.23438 6.78125 8.23438H8.23438V8.71875H6.78125C6.65279 8.71875 6.52958 8.76978 6.43875 8.86062C6.34791 8.95146 6.29688 9.07466 6.29688 9.20312C6.29688 9.33159 6.34791 9.45479 6.43875 9.54563C6.52958 9.63647 6.65279 9.6875 6.78125 9.6875H7.26562C7.26562 9.81596 7.31666 9.93917 7.4075 10.03C7.49833 10.1208 7.62154 10.1719 7.75 10.1719C7.87846 10.1719 8.00167 10.1208 8.09251 10.03C8.18334 9.93917 8.23438 9.81596 8.23438 9.6875H8.71875C8.84721 9.6875 8.97042 9.63647 9.06126 9.54563C9.15209 9.45479 9.20312 9.33159 9.20312 9.20312V7.75C9.20312 7.62154 9.15209 7.49833 9.06126 7.4075C8.97042 7.31666 8.84721 7.26562 8.71875 7.26562H7.26562V6.78125H8.71875Z" fill="#39B54A" stroke="#39B54A" stroke-width="0.3"/>
<path d="M13.3203 0.484375H2.17969C1.73022 0.484888 1.29931 0.663665 0.981487 0.981487C0.663665 1.29931 0.484888 1.73022 0.484375 2.17969V13.3203C0.484888 13.7698 0.663665 14.2007 0.981487 14.5185C1.29931 14.8363 1.73022 15.0151 2.17969 15.0156H13.3203C13.7698 15.0151 14.2007 14.8363 14.5185 14.5185C14.8363 14.2007 15.0151 13.7698 15.0156 13.3203V2.17969C15.0151 1.73022 14.8363 1.29931 14.5185 0.981487C14.2007 0.663665 13.7698 0.484888 13.3203 0.484375ZM14.0469 13.3203C14.0467 13.5129 13.9701 13.6976 13.8338 13.8338C13.6976 13.9701 13.5129 14.0467 13.3203 14.0469H2.17969C1.98706 14.0467 1.80237 13.9701 1.66616 13.8338C1.52995 13.6976 1.45333 13.5129 1.45312 13.3203V2.17969C1.45333 1.98706 1.52995 1.80237 1.66616 1.66616C1.80237 1.52995 1.98706 1.45333 2.17969 1.45312H13.3203C13.5129 1.45333 13.6976 1.52995 13.8338 1.66616C13.9701 1.80237 14.0467 1.98706 14.0469 2.17969V13.3203Z" fill="#39B54A" stroke="#39B54A" stroke-width="0.3"/>
<path d="M28.8203 0.484375H17.6797C17.2302 0.484888 16.7993 0.663665 16.4815 0.981487C16.1637 1.29931 15.9849 1.73022 15.9844 2.17969V13.3203C15.9849 13.7698 16.1637 14.2007 16.4815 14.5185C16.7993 14.8363 17.2302 15.0151 17.6797 15.0156H28.8203C29.2698 15.0151 29.7007 14.8363 30.0185 14.5185C30.3363 14.2007 30.5151 13.7698 30.5156 13.3203V2.17969C30.5151 1.73022 30.3363 1.29931 30.0185 0.981487C29.7007 0.663665 29.2698 0.484888 28.8203 0.484375ZM29.5469 13.3203C29.5467 13.5129 29.4701 13.6976 29.3338 13.8338C29.1976 13.9701 29.0129 14.0467 28.8203 14.0469H17.6797C17.4871 14.0467 17.3024 13.9701 17.1662 13.8338C17.0299 13.6976 16.9533 13.5129 16.9531 13.3203V2.17969C16.9533 1.98706 17.0299 1.80237 17.1662 1.66616C17.3024 1.52995 17.4871 1.45333 17.6797 1.45312H28.8203C29.0129 1.45333 29.1976 1.52995 29.3338 1.66616C29.4701 1.80237 29.5467 1.98706 29.5469 2.17969V13.3203Z" fill="#39B54A" stroke="#39B54A" stroke-width="0.3"/>
<path d="M13.3203 15.9844H2.17969C1.73022 15.9849 1.29931 16.1637 0.981487 16.4815C0.663665 16.7993 0.484888 17.2302 0.484375 17.6797V28.8203C0.484888 29.2698 0.663665 29.7007 0.981487 30.0185C1.29931 30.3363 1.73022 30.5151 2.17969 30.5156H13.3203C13.7698 30.5151 14.2007 30.3363 14.5185 30.0185C14.8363 29.7007 15.0151 29.2698 15.0156 28.8203V17.6797C15.0151 17.2302 14.8363 16.7993 14.5185 16.4815C14.2007 16.1637 13.7698 15.9849 13.3203 15.9844ZM14.0469 28.8203C14.0467 29.0129 13.9701 29.1976 13.8338 29.3338C13.6976 29.4701 13.5129 29.5467 13.3203 29.5469H2.17969C1.98706 29.5467 1.80237 29.4701 1.66616 29.3338C1.52995 29.1976 1.45333 29.0129 1.45312 28.8203V17.6797C1.45333 17.4871 1.52995 17.3024 1.66616 17.1662C1.80237 17.0299 1.98706 16.9533 2.17969 16.9531H13.3203C13.5129 16.9533 13.6976 17.0299 13.8338 17.1662C13.9701 17.3024 14.0467 17.4871 14.0469 17.6797V28.8203Z" fill="#39B54A" stroke="#39B54A" stroke-width="0.3"/>
<path d="M28.8203 15.9844H17.6797C17.2302 15.9849 16.7993 16.1636 16.4815 16.4815C16.1636 16.7993 15.9849 17.2302 15.9844 17.6797V28.8203C15.9849 29.2698 16.1636 29.7007 16.4815 30.0185C16.7993 30.3364 17.2302 30.5151 17.6797 30.5156H28.8203C29.2698 30.5151 29.7007 30.3364 30.0185 30.0185C30.3364 29.7007 30.5151 29.2698 30.5156 28.8203V17.6797C30.5151 17.2302 30.3364 16.7993 30.0185 16.4815C29.7007 16.1636 29.2698 15.9849 28.8203 15.9844ZM29.5469 28.8203C29.5467 29.013 29.4701 29.1977 29.3339 29.3339C29.1977 29.4701 29.013 29.5467 28.8203 29.5469H17.6797C17.487 29.5467 17.3023 29.4701 17.1661 29.3339C17.0299 29.1977 16.9533 29.013 16.9531 28.8203V17.6797C16.9533 17.487 17.0299 17.3023 17.1661 17.1661C17.3023 17.0299 17.487 16.9533 17.6797 16.9531H28.8203C29.013 16.9533 29.1977 17.0299 29.3339 17.1661C29.4701 17.3023 29.5467 17.487 29.5469 17.6797V28.8203Z" fill="#39B54A" stroke="#39B54A" stroke-width="0.3"/>
<path d="M26.6389 21.7566C26.6288 21.6355 26.5736 21.5227 26.4842 21.4404C26.3948 21.3582 26.2777 21.3125 26.1562 21.3125H25.1875V20.5859C25.187 20.1365 25.0082 19.7056 24.6904 19.3877C24.3725 19.0699 23.9416 18.8911 23.4922 18.8906H23.0078C22.5583 18.8911 22.1274 19.0699 21.8096 19.3877C21.4918 19.7056 21.313 20.1365 21.3125 20.5859V21.3125H20.3437C20.2222 21.3125 20.1052 21.3582 20.0158 21.4404C19.9264 21.5227 19.8712 21.6355 19.8611 21.7566L19.3767 27.5691C19.3711 27.6359 19.3794 27.7031 19.4012 27.7665C19.4229 27.8298 19.4575 27.888 19.5029 27.9373C19.5483 27.9866 19.6034 28.026 19.6647 28.0529C19.7261 28.0798 19.7924 28.0937 19.8594 28.0938H26.6406C26.7076 28.0937 26.7739 28.0798 26.8352 28.0529C26.8966 28.026 26.9517 27.9866 26.997 27.9373C27.0424 27.888 27.0771 27.8298 27.0988 27.7665C27.1205 27.7031 27.1289 27.6359 27.1233 27.5691L26.6389 21.7566ZM22.2812 20.5859C22.2814 20.3933 22.3581 20.2086 22.4943 20.0724C22.6305 19.9362 22.8152 19.8596 23.0078 19.8594H23.4922C23.6848 19.8596 23.8695 19.9362 24.0057 20.0724C24.1419 20.2086 24.2185 20.3933 24.2187 20.5859V21.3125H22.2812V20.5859ZM20.3857 27.125L20.7894 22.2812H21.3125V22.7656C21.3125 22.8941 21.3635 23.0173 21.4543 23.1081C21.5452 23.199 21.6684 23.25 21.7969 23.25C21.9253 23.25 22.0485 23.199 22.1394 23.1081C22.2302 23.0173 22.2812 22.8941 22.2812 22.7656V22.2812H24.2187V22.7656C24.2187 22.8941 24.2698 23.0173 24.3606 23.1081C24.4514 23.199 24.5746 23.25 24.7031 23.25C24.8316 23.25 24.9548 23.199 25.0456 23.1081C25.1364 23.0173 25.1875 22.8941 25.1875 22.7656V22.2812H25.7105L26.1142 27.125H20.3857Z" fill="#39B54A" stroke="#39B54A" stroke-width="0.3"/>
</g>
<defs>
<clipPath id="clip0_910_26392">
<rect width="31" height="31" fill="white"/>
</clipPath>
</defs>
</svg>
