<svg width="18" height="18" viewBox="0 0 18 18" fill="none" xmlns="http://www.w3.org/2000/svg">
<g clip-path="url(#clip0_1367_4341)">
<path d="M12.2067 10.5894L9.69703 8.70714V4.87293C9.69703 4.48741 9.38541 4.17578 8.99988 4.17578C8.61436 4.17578 8.30273 4.48741 8.30273 4.87293V9.05575C8.30273 9.27534 8.40592 9.48241 8.58159 9.61347L11.3701 11.7049C11.4956 11.799 11.642 11.8443 11.7877 11.8443C12.0003 11.8443 12.2095 11.7488 12.3461 11.5647C12.5776 11.2573 12.5149 10.8202 12.2067 10.5894Z" fill="black"/>
<path d="M9 0C4.0371 0 0 4.0371 0 9C0 13.9629 4.0371 18 9 18C13.9629 18 18 13.9629 18 9C18 4.0371 13.9629 0 9 0ZM9 16.6057C4.80674 16.6057 1.39426 13.1933 1.39426 9C1.39426 4.80674 4.80674 1.39426 9 1.39426C13.194 1.39426 16.6057 4.80674 16.6057 9C16.6057 13.1933 13.1933 16.6057 9 16.6057Z" fill="black"/>
</g>
<defs>
<clipPath id="clip0_1367_4341">
<rect width="18" height="18" fill="white"/>
</clipPath>
</defs>
</svg>
