<svg width="20" height="20" viewBox="0 0 20 20" fill="none" xmlns="http://www.w3.org/2000/svg">
<path d="M3.46867 13.624C3.30867 13.624 3.14898 13.563 3.0268 13.4409C2.78273 13.1968 2.78273 12.8012 3.0268 12.5571L12.7937 2.79022C13.0374 2.54616 13.4334 2.54616 13.6774 2.79022C13.9215 3.03429 13.9215 3.42991 13.6774 3.67397L3.91055 13.4409C3.78867 13.5627 3.62867 13.624 3.46867 13.624Z" fill="black"/>
<path d="M2.50453 18.1251C2.46109 18.1251 2.41703 18.1204 2.37297 18.111C2.03547 18.0385 1.82047 17.7063 1.89297 17.3688L2.85859 12.8679C2.93109 12.5304 3.26484 12.316 3.60078 12.3879C3.93828 12.4604 4.15328 12.7926 4.08078 13.1301L3.11516 17.631C3.05234 17.9245 2.79297 18.1251 2.50453 18.1251Z" fill="black"/>
<path d="M7.00383 17.1593C6.84383 17.1593 6.68414 17.0984 6.56195 16.9762C6.31789 16.7321 6.31789 16.3365 6.56195 16.0924L16.3288 6.32587C16.5726 6.08181 16.9685 6.08181 17.2126 6.32587C17.4566 6.56993 17.4566 6.96556 17.2126 7.20962L7.44602 16.9762C7.32383 17.0984 7.16383 17.1593 7.00383 17.1593Z" fill="black"/>
<path d="M2.5035 18.1251C2.21506 18.1251 1.956 17.9244 1.89288 17.631C1.82069 17.2935 2.03538 16.9613 2.37288 16.8888L6.87381 15.9232C7.21163 15.8516 7.54381 16.066 7.616 16.4032C7.68819 16.7407 7.4735 17.0729 7.136 17.1454L2.63506 18.111C2.591 18.1207 2.54694 18.1251 2.5035 18.1251Z" fill="black"/>
<path d="M15.004 9.16023C14.844 9.16023 14.684 9.0993 14.5621 8.97711L11.0268 5.4418C10.7827 5.19773 10.7827 4.80211 11.0268 4.55805C11.2705 4.31398 11.6668 4.31398 11.9105 4.55805L15.4459 8.09336C15.6899 8.33742 15.6899 8.73305 15.4459 8.97711C15.324 9.0993 15.164 9.16023 15.004 9.16023Z" fill="black"/>
<path d="M16.7741 7.39289C16.6141 7.39289 16.4541 7.33195 16.332 7.20977C16.0879 6.9657 16.0879 6.57008 16.332 6.3257C16.6798 5.97789 16.8713 5.50695 16.8713 5.00008C16.8713 4.4932 16.6798 4.02227 16.332 3.67445C15.9838 3.32633 15.5129 3.13477 15.006 3.13477C14.4991 3.13477 14.0282 3.32633 13.6804 3.67445C13.4366 3.91852 13.041 3.91883 12.7963 3.67445C12.5523 3.43039 12.5523 3.03477 12.7963 2.79039C13.3801 2.20633 14.1648 1.88477 15.006 1.88477C15.847 1.88477 16.632 2.20633 17.2157 2.79039C17.7998 3.37414 18.1213 4.15883 18.1213 5.00008C18.1213 5.84133 17.7998 6.62602 17.2157 7.20977C17.0941 7.33164 16.9341 7.39289 16.7741 7.39289Z" fill="black"/>
</svg>
