<svg width="24" height="24" viewBox="0 0 24 24" fill="none" xmlns="http://www.w3.org/2000/svg">
<g clip-path="url(#clip0_1301_1349)">
<path d="M11.8958 12.938L16.2083 16.1723C16.526 16.4106 16.9763 16.3463 17.2145 16.0286C17.4528 15.7109 17.3885 15.2606 17.0708 15.0223L13.0781 12V5.89062C13.0781 5.49352 12.7565 5.17188 12.3594 5.17188C11.9623 5.17188 11.6406 5.49352 11.6406 5.89062V12.3594C11.6406 12.598 11.7405 12.8129 11.8958 12.938Z" fill="black"/>
<path d="M12.7198 1.21875C7.45892 1.21875 2.96637 5.01591 2.0895 10.2031L1.81637 9.79703C1.59392 9.46748 1.14686 9.38052 0.81731 9.60297C0.487763 9.82542 0.400794 10.2725 0.623248 10.602L2.06075 12.7583C2.17898 12.938 2.37161 13.0555 2.58544 13.0781H2.65731C2.84778 13.0774 3.02998 13.0012 3.16403 12.8661L4.9609 11.0692C5.24158 10.7885 5.24158 10.3329 4.9609 10.0522C4.68023 9.77151 4.22454 9.77151 3.94387 10.0522L3.49825 10.5014C4.32589 5.40762 9.12606 1.94972 14.2195 2.77736C19.3129 3.605 22.7715 8.40481 21.9439 13.4986C21.209 18.0217 17.3022 21.3445 12.7198 21.3437C9.82972 21.3962 7.09631 20.0327 5.39934 17.6925C5.16898 17.3691 4.72012 17.2932 4.39669 17.5236C4.07325 17.754 3.99742 18.2028 4.22778 18.5262C6.19284 21.2474 9.36397 22.8362 12.7198 22.7812C18.6743 22.7812 23.5011 17.9545 23.5011 12C23.5011 6.04552 18.6743 1.21875 12.7198 1.21875Z" fill="black"/>
</g>
<defs>
<clipPath id="clip0_1301_1349">
<rect width="23" height="23" fill="white" transform="translate(0.5 0.5)"/>
</clipPath>
</defs>
</svg>
