<svg width="24" height="24" viewBox="0 0 24 24" fill="none" xmlns="http://www.w3.org/2000/svg">
<path d="M20.4853 3.51474C18.2188 1.24819 15.2053 0 12 0C8.79471 0 5.7812 1.24819 3.51474 3.51469C1.24819 5.7812 0 8.79471 0 12C0 15.2053 1.24819 18.2188 3.51474 20.4853C5.7812 22.7518 8.79471 24 12 24C15.2054 24 18.2188 22.7518 20.4854 20.4853C22.7518 18.2188 24 15.2053 24 12C24 8.79466 22.7518 5.7812 20.4853 3.51474ZM4.51013 4.51013C5.56534 3.45493 6.80411 2.65008 8.1543 2.12475C7.79467 2.57372 7.45816 3.08977 7.14976 3.67018C6.79159 4.34424 6.48254 5.08454 6.22515 5.87528C5.33349 5.72729 4.50732 5.54532 3.76923 5.33176C4.00056 5.04742 4.24735 4.77292 4.51013 4.51013ZM2.91699 6.54306C3.78029 6.81948 4.76757 7.05259 5.84486 7.23723C5.54485 8.51064 5.36828 9.88094 5.32614 11.2962H1.43138C1.542 9.59777 2.0521 7.97683 2.91699 6.54306ZM2.84035 17.3268C2.02214 15.9253 1.53867 14.3511 1.43133 12.7039H5.32881C5.37484 14.0787 5.5479 15.41 5.83778 16.6501C4.73837 16.8283 3.72629 17.0555 2.84035 17.3268ZM4.51013 19.4899C4.21107 19.1908 3.93254 18.8767 3.6743 18.5498C4.43945 18.3377 5.29482 18.158 6.21559 18.0139C6.47481 18.8156 6.78719 19.5657 7.14972 20.2481C7.48581 20.8806 7.85533 21.4363 8.25175 21.9124C6.86378 21.3882 5.5907 20.5704 4.51013 19.4899ZM11.2961 22.4117C10.227 22.1122 9.21564 21.1359 8.39289 19.5875C8.10513 19.046 7.85237 18.4552 7.63586 17.8256C8.79508 17.698 10.0286 17.6226 11.2961 17.6049V22.4117ZM11.2961 16.1971C9.89046 16.2162 8.52034 16.3045 7.23723 16.4552C6.9542 15.2852 6.7839 14.0187 6.73717 12.7039H11.2962V16.1971H11.2961ZM11.2961 11.2961H6.7345C6.7772 9.94455 6.95022 8.64278 7.24206 7.44297C8.51697 7.60234 9.88422 7.69928 11.2961 7.72703V11.2961ZM11.2961 6.31914C10.0237 6.2935 8.79288 6.21053 7.64186 6.07515C7.85706 5.45209 8.10784 4.86728 8.39289 4.3307C9.2156 2.78232 10.227 1.806 11.2961 1.50652V6.31914ZM21.1274 6.61783C21.9652 8.03312 22.4599 9.62716 22.5688 11.2961H18.674C18.6323 9.89721 18.4591 8.54228 18.1654 7.28144C19.2498 7.10631 20.2493 6.88351 21.1274 6.61783ZM19.4899 4.51013C19.7725 4.79274 20.0365 5.08899 20.2827 5.39654C19.5293 5.60228 18.6903 5.77689 17.7888 5.91742C17.5287 5.11079 17.2149 4.35624 16.8503 3.67018C16.5419 3.08977 16.2054 2.57372 15.8458 2.12475C17.1959 2.65008 18.4347 3.45493 19.4899 4.51013ZM12.7039 12.7039H17.2629C17.2159 14.029 17.0433 15.305 16.7562 16.4826C15.4815 16.3241 14.1148 16.2281 12.7039 16.2011V12.7039ZM12.7039 11.2961V7.73172C14.1104 7.71325 15.4816 7.62573 16.7659 7.47559C17.053 8.66636 17.2232 9.95679 17.2655 11.2961H12.7039ZM12.7038 1.50652H12.7039C13.773 1.806 14.7844 2.78232 15.6071 4.3307C15.8967 4.87571 16.1509 5.4706 16.3684 6.10482C15.2076 6.23195 13.9727 6.30681 12.7038 6.32392V1.50652ZM12.7039 22.4117V17.609C13.9752 17.6339 15.205 17.7161 16.3556 17.8506C16.141 18.4709 15.891 19.0532 15.6072 19.5875C14.7844 21.1359 13.773 22.1122 12.7039 22.4117ZM19.4899 19.4899C18.4093 20.5704 17.1363 21.3882 15.7483 21.9123C16.1447 21.4363 16.5142 20.8806 16.8503 20.2481C17.2075 19.5758 17.5158 18.8377 17.7728 18.0493C18.6852 18.2 19.5293 18.3862 20.2813 18.6052C20.0355 18.9121 19.772 19.2078 19.4899 19.4899ZM21.1222 17.3911C20.2487 17.1103 19.2472 16.874 18.1538 16.6875C18.4489 15.4369 18.6248 14.0925 18.6713 12.7039H22.5688C22.4597 14.3763 21.9633 15.9736 21.1222 17.3911Z" fill="white"/>
</svg>
