<svg width="20" height="24" viewBox="0 0 20 24" fill="none" xmlns="http://www.w3.org/2000/svg">
<path d="M9.55516 21.0261C7.02326 21.0261 4.4914 20.624 2.08993 19.8199C1.17716 19.5048 0.481713 18.8636 0.177455 18.0269C-0.13767 17.1902 -0.029006 16.2666 0.470847 15.4407L1.72048 13.3653C1.98127 12.9306 2.22033 12.0613 2.22033 11.5506V8.41023C2.22033 4.36795 5.51284 1.07544 9.55516 1.07544C13.5974 1.07544 16.8899 4.36795 16.8899 8.41023V11.5506C16.8899 12.0504 17.129 12.9306 17.3898 13.3761L18.6286 15.4407C19.0958 16.2231 19.1828 17.1685 18.8676 18.0269C18.5525 18.8854 17.8679 19.5374 17.0095 19.8199C14.6189 20.624 12.087 21.0261 9.55516 21.0261ZM9.55516 2.70539C6.41475 2.70539 3.85028 5.25899 3.85028 8.41023V11.5506C3.85028 12.3438 3.52429 13.5174 3.12224 14.202L1.87261 16.2775C1.63355 16.6795 1.56835 17.1033 1.70961 17.4619C1.84001 17.8313 2.166 18.1139 2.61152 18.266C7.15366 19.7873 11.9675 19.7873 16.5096 18.266C16.9008 18.1356 17.2051 17.8422 17.3463 17.451C17.4876 17.0598 17.455 16.636 17.2377 16.2775L15.988 14.202C15.5751 13.4957 15.26 12.333 15.26 11.5397V8.41023C15.26 5.25899 12.7064 2.70539 9.55516 2.70539Z" fill="white"/>
<path d="M11.5751 2.99912C11.499 2.99912 11.423 2.98825 11.3469 2.96652C11.0318 2.87959 10.7275 2.81439 10.4341 2.77092C9.5105 2.65139 8.61946 2.71659 7.78275 2.96652C7.47849 3.06431 7.15253 2.96652 6.94607 2.73832C6.73961 2.51013 6.67442 2.18414 6.79395 1.89075C7.23947 0.749779 8.32607 0 9.56483 0C10.8036 0 11.8902 0.738913 12.3358 1.89075C12.4444 2.18414 12.3901 2.51013 12.1836 2.73832C12.0206 2.91218 11.7924 2.99912 11.5751 2.99912Z" fill="white"/>
<path d="M9.55532 23.5038C8.47955 23.5038 7.43638 23.0692 6.67577 22.3085C5.91512 21.5479 5.48047 20.5047 5.48047 19.429H7.11042C7.11042 20.0701 7.37118 20.7003 7.82757 21.1567C8.28396 21.6131 8.91421 21.8739 9.55532 21.8739C10.9027 21.8739 12.0003 20.7764 12.0003 19.429H13.6302C13.6302 21.6783 11.8047 23.5038 9.55532 23.5038Z" fill="white"/>
</svg>
