<svg width="30" height="29" viewBox="0 0 30 29" fill="none" xmlns="http://www.w3.org/2000/svg">
<path d="M14.4638 9.34922H0.917754C0.403825 9.34922 0 9.75305 0 10.267C0 10.7809 0.403825 11.1847 0.917754 11.1847H14.4638C14.8676 12.5429 16.1157 13.5342 17.6209 13.5342C19.0892 13.5342 20.3741 12.5429 20.7414 11.1847H24.0821C24.596 11.1847 24.9998 10.7809 24.9998 10.267C24.9998 9.75305 24.596 9.34922 24.0821 9.34922L20.7414 9.34922C20.3376 7.99101 19.0895 6.99977 17.6209 6.99977C16.1157 6.99977 14.8674 7.99101 14.4635 9.34922H14.4638ZM19.0159 10.267C19.0159 11.0746 18.3553 11.6987 17.5842 11.6987C16.8132 11.6987 16.1525 11.0746 16.1525 10.267C16.1525 9.45935 16.8132 8.83528 17.5842 8.83528C18.3553 8.83528 19.0159 9.45932 19.0159 10.267Z" fill="black"/>
<path d="M3.45082 16.463H0.917754C0.403825 16.463 0 16.8668 0 17.3807C0 17.8947 0.403825 18.2985 0.917754 18.2985H3.45082C3.85465 19.6567 5.10271 20.6479 6.6079 20.6479C8.07617 20.6479 9.36116 19.6567 9.72839 18.2985H24.0821C24.596 18.2985 24.9998 17.8947 24.9998 17.3807C24.9998 16.8668 24.596 16.463 24.0821 16.463H9.72839C9.32457 15.1048 8.0765 14.1135 6.6079 14.1135C5.10298 14.1135 3.85463 15.1048 3.45082 16.463ZM8.00295 17.3807C8.00295 18.1884 7.3423 18.8124 6.57125 18.8124C5.80021 18.8124 5.13956 18.1884 5.13956 17.3807C5.13956 16.5731 5.80021 15.949 6.57125 15.949C7.3423 15.949 8.00295 16.5731 8.00295 17.3807Z" fill="black"/>
<path d="M10.0586 24.5392H0.917754C0.403825 24.5392 0 24.943 0 25.4569C0 25.9708 0.403825 26.3747 0.917754 26.3747H10.0586C10.4624 27.7329 11.7105 28.7241 13.2157 28.7241C14.6839 28.7241 15.9689 27.7329 16.3362 26.3747H24.082C24.5959 26.3747 24.9998 25.9708 24.9998 25.4569C24.9998 24.943 24.5959 24.5392 24.082 24.5392H16.3362C15.9323 23.181 14.6843 22.1897 13.2157 22.1897C11.7105 22.1897 10.4624 23.1807 10.0586 24.5392ZM14.6107 25.4569C14.6107 26.2645 13.9501 26.8886 13.179 26.8886C12.408 26.8886 11.7473 26.2646 11.7473 25.4569C11.7473 24.6493 12.408 24.0252 13.179 24.0252C13.9498 24.0252 14.6107 24.6493 14.6107 25.4569Z" fill="black"/>
<circle cx="25" cy="5" r="5" fill="#C1272D"/>
</svg>
