<svg width="25" height="22" viewBox="0 0 25 22" fill="none" xmlns="http://www.w3.org/2000/svg">
<path d="M14.4638 2.34922L0.917754 2.34922C0.403825 2.34922 0 2.75305 0 3.26697C0 3.7809 0.403825 4.18473 0.917754 4.18473L14.4638 4.18473C14.8676 5.54294 16.1157 6.53418 17.6209 6.53418C19.0892 6.53418 20.3741 5.54294 20.7414 4.18473H24.0821C24.596 4.18473 24.9998 3.7809 24.9998 3.26697C24.9998 2.75305 24.596 2.34922 24.0821 2.34922L20.7414 2.34922C20.3376 0.991009 19.0895 -0.000230789 17.6209 -0.000230789C16.1157 -0.000230789 14.8674 0.991009 14.4635 2.34922H14.4638ZM19.0159 3.26697C19.0159 4.0746 18.3553 4.69867 17.5842 4.69867C16.8132 4.69867 16.1525 4.07463 16.1525 3.26697C16.1525 2.45935 16.8132 1.83528 17.5842 1.83528C18.3553 1.83528 19.0159 2.45932 19.0159 3.26697Z" fill="black"/>
<path d="M3.45082 9.46299H0.917754C0.403825 9.46299 0 9.86681 0 10.3807C0 10.8947 0.403825 11.2985 0.917754 11.2985H3.45082C3.85465 12.6567 5.10271 13.6479 6.6079 13.6479C8.07617 13.6479 9.36116 12.6567 9.72839 11.2985L24.0821 11.2985C24.596 11.2985 24.9998 10.8947 24.9998 10.3807C24.9998 9.86681 24.596 9.46299 24.0821 9.46299L9.72839 9.46299C9.32457 8.10478 8.0765 7.11354 6.6079 7.11354C5.10298 7.11354 3.85463 8.10478 3.45082 9.46299ZM8.00295 10.3807C8.00295 11.1884 7.3423 11.8124 6.57125 11.8124C5.80021 11.8124 5.13956 11.1884 5.13956 10.3807C5.13956 9.57312 5.80021 8.94905 6.57125 8.94905C7.3423 8.94905 8.00295 9.57309 8.00295 10.3807Z" fill="black"/>
<path d="M10.0586 17.5392H0.917754C0.403825 17.5392 0 17.943 0 18.4569C0 18.9708 0.403825 19.3747 0.917754 19.3747H10.0586C10.4624 20.7329 11.7105 21.7241 13.2157 21.7241C14.6839 21.7241 15.9689 20.7329 16.3362 19.3747H24.082C24.5959 19.3747 24.9998 18.9708 24.9998 18.4569C24.9998 17.943 24.5959 17.5392 24.082 17.5392H16.3362C15.9323 16.181 14.6843 15.1897 13.2157 15.1897C11.7105 15.1897 10.4624 16.1807 10.0586 17.5392ZM14.6107 18.4569C14.6107 19.2645 13.9501 19.8886 13.179 19.8886C12.408 19.8886 11.7473 19.2646 11.7473 18.4569C11.7473 17.6493 12.408 17.0252 13.179 17.0252C13.9498 17.0252 14.6107 17.6493 14.6107 18.4569Z" fill="black"/>
</svg>
