<svg width="30" height="30" viewBox="0 0 30 30" fill="none" xmlns="http://www.w3.org/2000/svg">
<rect x="30" y="30" width="30" height="30" rx="5" transform="rotate(180 30 30)" fill="white"/>
<path d="M14.3503 14.9972L9.13561 20.2119C8.95533 20.3922 8.95533 20.6845 9.13561 20.8648C9.31594 21.0451 9.60822 21.0451 9.78853 20.8648L15.3297 15.3237C15.5099 15.1434 15.5099 14.8511 15.3297 14.6708L9.78853 9.12964C9.60509 8.95248 9.31277 8.95756 9.13561 9.141C8.9628 9.31995 8.9628 9.60364 9.13561 9.78256L14.3503 14.9972Z" fill="black" stroke="black"/>
<path d="M20.8151 14.9972L15.6004 20.2119C15.4202 20.3922 15.4202 20.6845 15.6004 20.8648C15.7808 21.0451 16.0731 21.0451 16.2534 20.8648L21.7945 15.3237C21.9747 15.1434 21.9747 14.8511 21.7945 14.6708L16.2534 9.12964C16.0699 8.95248 15.7776 8.95756 15.6004 9.141C15.4276 9.31995 15.4276 9.60364 15.6004 9.78256L20.8151 14.9972Z" fill="black" stroke="black"/>
</svg>
