<svg width="31" height="31" viewBox="0 0 31 31" fill="none" xmlns="http://www.w3.org/2000/svg">
<path d="M23.4564 10.4242C23.3827 10.2486 23.2924 10.0832 23.1874 9.92967H24.7636C26.2993 9.92967 27.5488 8.68023 27.5488 7.14452C27.5488 5.60881 26.2993 4.35937 24.7636 4.35937H19.915C20.2233 3.9112 20.4043 3.369 20.4043 2.78515C20.4043 1.24944 19.1548 0 17.6191 0H2.78515C1.24944 0 0 1.24944 0 2.78515C0 4.32086 1.24944 5.5703 2.78515 5.5703H7.63374C7.32549 6.01847 7.14452 6.56067 7.14452 7.14452C7.14452 7.72837 7.32543 8.27057 7.63374 8.71873H6.05468C4.51897 8.71873 3.26953 9.96818 3.26953 11.5039C3.26953 12.3859 3.68209 13.1729 4.32395 13.6836C3.68209 14.1942 3.26953 14.9813 3.26953 15.8633C3.26953 16.7452 3.68209 17.5323 4.32395 18.0429C3.68209 18.5536 3.26953 19.3406 3.26953 20.2226C3.26953 21.1046 3.68209 21.8916 4.32395 22.4023C3.68209 22.913 3.26953 23.7 3.26953 24.582C3.26953 26.1177 4.51897 27.3671 6.05468 27.3671H13.1901C15.0698 29.3777 17.744 30.6367 20.7071 30.6367C26.3826 30.6367 31 26.0193 31 20.3438C31 15.6201 27.8013 11.63 23.4564 10.4242ZM24.7636 5.5703C25.6317 5.5703 26.3378 6.27652 26.3378 7.14452C26.3378 8.01252 25.6317 8.71873 24.7636 8.71873H20.8886H9.92967C9.06161 8.71873 8.35545 8.01252 8.35545 7.14452C8.35545 6.27652 9.06161 5.5703 9.92967 5.5703H24.7636ZM2.78515 4.35937C1.91709 4.35937 1.21094 3.65315 1.21094 2.78515C1.21094 1.91715 1.91709 1.21094 2.78515 1.21094H17.6191C18.4872 1.21094 19.1933 1.91715 19.1933 2.78515C19.1933 3.65315 18.4872 4.35937 17.6191 4.35937H2.78515ZM6.05468 9.92967H20.8886C21.1325 9.92967 21.366 9.98634 21.5755 10.0878C21.2891 10.0638 20.9996 10.0508 20.7071 10.0508C17.8647 10.0508 15.2878 11.209 13.4233 13.0781H6.05468C5.18668 13.0781 4.48046 12.3719 4.48046 11.5039C4.48046 10.6359 5.18668 9.92967 6.05468 9.92967ZM6.05468 14.289H12.3888C11.7014 15.2307 11.17 16.2928 10.8325 17.4375H6.05468C5.18662 17.4375 4.48046 16.7313 4.48046 15.8633C4.48046 14.9953 5.18662 14.289 6.05468 14.289ZM6.05468 18.6484H10.5545C10.4627 19.2002 10.4141 19.7663 10.4141 20.3438C10.4141 20.837 10.4498 21.322 10.5172 21.7968H6.05468C5.18662 21.7968 4.48046 21.0907 4.48046 20.2226C4.48046 19.3546 5.18662 18.6484 6.05468 18.6484ZM6.05468 26.1562C5.18662 26.1562 4.48046 25.45 4.48046 24.582C4.48046 23.7139 5.18662 23.0078 6.05468 23.0078H10.7644C11.0699 24.1468 11.5662 25.2084 12.2171 26.1562H6.05468ZM20.7071 29.4258C15.6992 29.4258 11.625 25.3516 11.625 20.3438C11.625 15.3359 15.6992 11.2618 20.7071 11.2618C25.7149 11.2618 29.7891 15.3359 29.7891 20.3438C29.7891 25.3516 25.7149 29.4258 20.7071 29.4258Z" fill="#39B54A"/>
<g clip-path="url(#clip0_910_26385)">
<path d="M23.8725 22.0366C23.8725 21.1442 23.3773 20.3655 22.6473 19.9604C23.0967 19.5701 23.3816 18.9952 23.3816 18.3547C23.3816 17.293 22.5997 16.4105 21.5816 16.2526V16.2275C21.5816 16.0015 21.3984 15.8184 21.1725 15.8184C20.9465 15.8184 20.7634 16.0015 20.7634 16.2275V16.2276H19.5361C19.3101 16.2276 19.127 16.4107 19.127 16.6367V20.0729C19.127 20.0729 19.127 20.073 19.127 20.073C19.127 20.0731 19.127 20.0731 19.127 20.0732V24.0003C19.127 24.2262 19.3101 24.4094 19.5361 24.4094H20.7634C20.7634 24.6352 20.9466 24.8184 21.1725 24.8184C21.3984 24.8184 21.5816 24.6352 21.5816 24.4093V24.4078C22.8522 24.3645 23.8725 23.3176 23.8725 22.0366ZM22.5634 18.3547C22.5634 18.9636 22.1456 19.4767 21.5816 19.6224V17.0871C22.1455 17.2329 22.5634 17.7458 22.5634 18.3547ZM19.9452 17.0458H20.7634V19.6638H19.9452V17.0458ZM19.9452 20.4823H20.7634V23.5912H19.9452V20.4823ZM21.5816 23.589V20.4844C22.4008 20.5271 23.0543 21.2069 23.0543 22.0366C23.0543 22.8663 22.4009 23.5463 21.5816 23.589Z" fill="#39B54A" stroke="#39B54A" stroke-width="0.2"/>
</g>
<defs>
<clipPath id="clip0_910_26385">
<rect width="9" height="9" fill="white" transform="translate(17 15.8184)"/>
</clipPath>
</defs>
</svg>
